PathFileType	4	(X/Y/Z)	C:/Users/beibeiliu/ov580/test_trc/User1\sequence.7_training_dense_right.trc
DataRate	CameraRate	NumFrames	NumMarkers	Units	OrigDataRate	OrigDataStartFrame	OrigNumFrames
120	120	12	19	mm	120	74	295
Frame#	Time	ThumbCMC			ThumbMCP			ThumbIP			ThumbTip			IndexMCP			IndexPIP			IndexTip			MiddleMCP			MiddlePIP			MiddleTip			RingMCP			RingPIP			RingTip			PinkyMCP			PinkyPIP			PinkyTip			BackHand1			BackHand2			BackHand3	
		X0	Y0	Z0	X1	Y1	Z1	X2	Y2	Z2	X3	Y3	Z3	X4	Y4	Z4	X5	Y5	Z5	X6	Y6	Z6	X7	Y7	Z7	X8	Y8	Z8	X9	Y9	Z9	X10	Y10	Z10	X11	Y11	Z11	X12	Y12	Z12	X13	Y13	Z13	X14	Y14	Z14	X15	Y15	Z15	X16	Y16	Z16	X17	Y17	Z17	X18	Y18	Z18	
73	0.608333	117.556	124.955	27.0094	94.1511	101.047	4.9392	92.1768	87.3765	-20.8491	93.7318	70.9196	-41.7507	130.267	142.364	-51.0544	123.482	140.671	-79.7514	118.928	128.136	-103.948	136.049	108.563	-59.6849	117.039	82.0018	-58.3151	112.683	79.4269	-18.806	149.741	88.9963	-48.0747	127.126	61.4912	-37.6812	123.286	65.8768	-4.51334	167.915	74.4232	-34.5665	142.273	59.2898	-26.2034	134.291	77.6562	2.65313	177.665	119.506	-3.6242	184.015	122.289	33.6745	152.586	142.13	18.776	
74	0.616667	115.286	119.695	28.543	99.014	95.0356	1.96056	95.3748	82.1276	-20.9507	101.574	66.1603	-42.7766	124.193	139.326	-51.1749	119.864	137.418	-80.931	120.332	125.651	-104.821	135.521	106.303	-59.0218	122.12	75.0165	-54.8601	120.973	72.0431	-17.6486	154.208	89.5424	-47.787	134.064	59.4612	-33.8596	130.049	61.7989	-5.48665	173.294	78.5732	-34.7087	148.063	61.4422	-24.4243	140.206	80.6301	0.617043	178.558	123.935	-4.73013	181.532	128.22	34.6155	147.828	143.799	14.8658	
75	0.625	112.934	116.96	27.8723	98.2438	90.78	4.79943	95.9761	77.5212	-20.2339	103.782	61.4875	-47.047	119.69	136.206	-53.6131	116.425	133.974	-79.4612	114.573	128.907	-105.05	135.437	108.209	-56.9422	123.373	72.5306	-53.9363	125.536	72.1983	-12.8604	155.317	86.1156	-48.241	140.297	61.4921	-37.7019	136.716	62.6355	-3.26635	177.527	83.4757	-34.069	157.116	62.1083	-26.2585	145.014	79.268	2.85402	176.897	128.984	-4.16818	178.742	132.465	33.9024	142.135	146.056	15.4249	
76	0.633333	112.249	114.178	29.715	100.315	87.3534	-0.0239056	101.209	74.1072	-22.6972	107.793	57.4924	-46.1011	120.093	134.099	-50.1833	111.937	132.634	-76.9211	116.116	127.807	-107.771	136.181	105.622	-57.9628	130.435	70.002	-53.3936	128.941	69.6014	-15.3213	157.215	91.7766	-46.2567	145.806	59.4948	-32.6598	142.027	63.3904	-1.64355	178.263	87.8956	-33.6263	160.993	65.5245	-24.8567	146.751	83.3891	2.57046	172.178	132.966	0.950127	178.189	138.86	31.4233	140.48	144.57	20.5228	
77	0.641667	109.624	111.33	28.7012	105.013	83.6019	3.56888	104.244	70.8857	-22.2701	114.82	55.3524	-45.6136	112.531	133.007	-54.0959	111.74	129.819	-78.5424	116.489	127.368	-105.479	138.767	103.715	-57.6963	132.273	70.9818	-53.4304	135.975	69.6885	-13.2414	162.111	88.3144	-46.8987	149.607	63.0787	-33.9662	144.123	64.0554	-2.02592	183.745	89.5411	-31.3575	165.997	66.9864	-19.6765	153.32	85.2876	6.7898	169.262	135.646	-1.74938	174.082	140.367	31.8944	138.208	143.143	17.6183	
78	0.65	108.048	108.902	29.9342	103.547	79.634	4.8784	106.152	66.5033	-27.4353	123.688	56.7223	-46.0849	115.06	129.564	-50.4858	109.711	128.784	-77.9434	115.962	126.368	-105.157	139.813	106.627	-55.5877	140.607	69.9725	-52.5789	137.637	70.0041	-13.3711	163.867	91.8187	-45.0152	156.909	61.4211	-30.4889	149.054	67.0616	0.659857	183.079	90.1492	-31.7	170.341	68.3525	-20.0628	152.354	83.6356	5.08188	166.127	140.07	-0.315526	166.159	145.421	36.0668	133.426	143.027	16.7751	
79	0.658333	107.472	107.049	26.9723	103.613	78.2035	1.76882	110.175	65.9799	-20.7508	125.518	56.0702	-43.957	111.071	129.092	-55.0734	113.683	128.046	-81.509	112.362	124.253	-105.862	138.277	105.683	-56.4738	139.482	70.5223	-53.106	135.739	73.7497	-10.0967	161.669	96.3192	-44.2746	155.264	62.6034	-31.1133	149.519	69.56	2.45098	184.416	92.2794	-31.9461	167.099	72.0496	-21.4182	154.444	84.122	8.71042	164.247	140.81	1.14152	163.082	145.896	33.7018	129.63	141.778	18.6436	
80	0.666667	106.525	107.604	27.473	104.511	77.0387	-1.00633	110.212	63.8838	-24.1729	125.049	49.903	-45.6313	114.661	129.926	-55.7124	111.618	127.209	-81.2876	114.288	122.434	-107.32	140.635	103.562	-57.2425	141.8	69.265	-51.4721	135.116	72.5866	-12.4069	162.465	96.0483	-45.1764	155.511	64.6453	-32.8011	148.016	68.6775	1.05647	181.003	94.7297	-32.2809	168.389	70.3318	-18.0139	155.621	86.8858	8.88363	162.062	140.817	0.672843	163.169	144.869	34.2032	128.594	141.658	18.1637	
81	0.675	106.608	106.412	26.3514	105.77	76.1798	0.707964	109.645	62.518	-23.9377	127.871	53.4757	-42.4937	111.313	128.876	-55.4015	111.149	125.332	-82.0338	113.694	119.151	-109.726	142.731	101.395	-59.4091	141.188	68.1093	-48.1573	134.168	73.4851	-11.7818	163.665	92.8452	-45.4802	153.636	62.4079	-30.6922	151.194	68.4011	2.98326	181.469	92.0255	-31.5273	169.378	69.1743	-17.3837	153.565	83.2919	8.16227	163.502	139.488	2.53747	166.644	145.175	35.9675	132.379	142.295	16.7982	
82	0.683333	104.361	105.105	25.0421	106.047	76.0509	0.109699	112.664	63.8421	-25.7811	128.538	52.1529	-44.5228	115.716	128.45	-56.543	114.061	125.225	-81.3663	118.3	114.658	-105.772	140.951	103.313	-57.3688	137.805	70.0288	-54.169	135.064	73.6619	-10.1555	162.63	91.7941	-45.4779	153.801	62.7039	-29.756	149.958	66.5064	-0.118645	181.928	95.0396	-30.7722	170.101	68.9994	-17.3108	153.408	81.5093	7.02698	165.089	139.471	-2.24483	163.749	145.913	32.8798	130.147	141.224	14.378	
83	0.691667	108.098	105.704	27.2039	105.595	74.3287	-0.517495	111.048	62.3021	-23.6776	127.502	50.6844	-45.1213	116.018	129.065	-52.8637	112.548	123.757	-83.9739	114.754	107.999	-108.576	143.403	104.51	-57.2437	141.129	69.7825	-53.2485	136.064	70.3855	-13.6593	161.595	95.5651	-43.8886	158.479	63.923	-32.7736	147.303	65.7886	1.44558	181.159	91.376	-30.7083	167.358	70.4702	-16.3594	153.058	81.3442	7.11648	166.527	140.318	0.0442111	166.885	144.212	37.8953	130.334	142.905	16.1763	
84	0.7	107.918	104.847	27.5164	108.188	76.6837	0.322413	111.112	61.4326	-26.0781	127.401	51.6618	-42.7512	110.753	129.245	-53.6139	115.373	121.522	-83.4648	117.553	101.11	-105.854	140.68	104.605	-55.394	140.263	67.2362	-51.0449	138.47	70.5852	-11.2554	160.475	92.1972	-45.3982	161.158	61.8656	-30.7694	147.675	64.9712	-0.206595	183.491	96.3607	-29.1203	172.105	68.2544	-17.424	153.39	81.4078	5.85517	160.785	139.563	-1.53637	164.693	144.459	34.9956	131.287	140.945	15.6182	
